<svg width="500" height="500" viewBox="0 0 500 500" fill="none" xmlns="http://www.w3.org/2000/svg">
<rect width="500" height="500" fill="#EEEEEE"/>
<path d="M140.331 345.88C123.265 345.88 107.905 342.147 94.2513 334.68C80.5979 327 69.8246 316.227 61.9313 302.36C54.2513 288.493 50.4113 272.493 50.4113 254.36C50.4113 236.227 54.3579 220.227 62.2513 206.36C70.3579 192.493 81.3446 181.827 95.2113 174.36C109.078 166.68 124.545 162.84 141.611 162.84C158.678 162.84 174.145 166.68 188.011 174.36C201.878 181.827 212.758 192.493 220.651 206.36C228.758 220.227 232.811 236.227 232.811 254.36C232.811 272.493 228.651 288.493 220.331 302.36C212.225 316.227 201.131 327 187.051 334.68C173.185 342.147 157.611 345.88 140.331 345.88ZM140.331 306.84C148.438 306.84 156.011 304.92 163.051 301.08C170.305 297.027 176.065 291.053 180.331 283.16C184.598 275.267 186.731 265.667 186.731 254.36C186.731 237.507 182.251 224.6 173.291 215.64C164.545 206.467 153.771 201.88 140.971 201.88C128.171 201.88 117.398 206.467 108.651 215.64C100.118 224.6 95.8513 237.507 95.8513 254.36C95.8513 271.213 100.011 284.227 108.331 293.4C116.865 302.36 127.531 306.84 140.331 306.84ZM335.114 162.84C348.34 162.84 359.967 165.507 369.994 170.84C380.02 175.96 387.914 182.68 393.674 191V165.72H438.794V344.28C438.794 360.707 435.487 375.32 428.874 388.12C422.26 401.133 412.34 411.373 399.114 418.84C385.887 426.52 369.887 430.36 351.114 430.36C325.94 430.36 305.247 424.493 289.034 412.76C273.034 401.027 263.967 385.027 261.834 364.76H306.314C308.66 372.867 313.674 379.267 321.354 383.96C329.247 388.867 338.74 391.32 349.834 391.32C362.847 391.32 373.407 387.373 381.514 379.48C389.62 371.8 393.674 360.067 393.674 344.28V316.76C387.914 325.08 379.914 332.013 369.674 337.56C359.647 343.107 348.127 345.88 335.114 345.88C320.18 345.88 306.527 342.04 294.154 334.36C281.78 326.68 271.967 315.907 264.714 302.04C257.674 287.96 254.154 271.853 254.154 253.72C254.154 235.8 257.674 219.907 264.714 206.04C271.967 192.173 281.674 181.507 293.834 174.04C306.207 166.573 319.967 162.84 335.114 162.84ZM393.674 254.36C393.674 243.48 391.54 234.2 387.274 226.52C383.007 218.627 377.247 212.653 369.994 208.6C362.74 204.333 354.954 202.2 346.634 202.2C338.314 202.2 330.634 204.227 323.594 208.28C316.554 212.333 310.794 218.307 306.314 226.2C302.047 233.88 299.914 243.053 299.914 253.72C299.914 264.387 302.047 273.773 306.314 281.88C310.794 289.773 316.554 295.853 323.594 300.12C330.847 304.387 338.527 306.52 346.634 306.52C354.954 306.52 362.74 304.493 369.994 300.44C377.247 296.173 383.007 290.2 387.274 282.52C391.54 274.627 393.674 265.24 393.674 254.36Z" fill="#191723"/>
</svg>
